<?xml version="1.0" encoding="UTF-8"?>
<svg id="_レイヤー_2" data-name="レイヤー 2" xmlns="http://www.w3.org/2000/svg" viewBox="0 0 206.76 95.31">
  <defs>
    <style>
      .cls-1 {
        fill: #e22a00;
      }

      .cls-1, .cls-2 {
        stroke-width: 0px;
      }

      .cls-2 {
        fill: #fff;
      }
    </style>
  </defs>
  <g id="_レイヤー_1-2" data-name="レイヤー 1">
    <g>
      <path class="cls-1" d="M197.7,63.4c3.57-24.3-16.43-36.68-22.87-39.18C161.97-.08,130.85,1.21,122.67,6.35,113.74-.08,108.36,0,103.38,0s-10.36-.08-19.29,6.35C75.91,1.21,44.78-.08,31.92,24.22c-6.43,2.5-26.44,14.89-22.87,39.18-12.15,4.53-10.48,23.58-4.29,31.92h197.22c6.19-8.34,7.86-27.39-4.29-31.92ZM14.7,65.21c-.02.14-.07.27-.12.41-.05.13-.12.25-.2.37-.08.12-.17.23-.27.33s-.21.2-.33.27c-.12.08-.25.15-.38.2-.13.05-.27.09-.41.12-.14.03-.28.04-.43.04s-.28-.01-.43-.04c-.14-.03-.27-.07-.41-.12-.13-.05-.25-.12-.37-.2-.12-.08-.23-.17-.33-.27-.1-.1-.19-.21-.27-.33-.08-.12-.14-.24-.2-.37-.05-.14-.09-.27-.12-.41-.02-.14-.04-.28-.04-.43,0-.57.23-1.13.64-1.54.5-.5,1.26-.73,1.96-.59.14.02.28.06.41.12.13.05.26.12.38.2.12.08.23.17.33.27.4.41.64.97.64,1.54,0,.14-.02.28-.05.43ZM21.32,66.96c-1.2,0-2.17-.98-2.17-2.18s.98-2.18,2.17-2.18,2.18.97,2.18,2.18-.97,2.18-2.18,2.18ZM32.21,65.21c-.03.14-.07.27-.12.41-.05.13-.12.25-.2.37-.08.12-.17.23-.27.33s-.21.2-.33.27c-.11.08-.24.15-.37.2-.13.05-.27.09-.41.12-.14.03-.28.04-.43.04s-.28-.01-.43-.04c-.14-.03-.28-.07-.41-.12-.13-.05-.25-.12-.37-.2-.12-.08-.23-.17-.33-.27-.1-.1-.19-.21-.27-.33-.08-.12-.15-.24-.2-.37-.05-.14-.09-.27-.12-.41-.03-.14-.04-.28-.04-.43,0-.57.23-1.13.64-1.54.1-.1.21-.19.33-.27.12-.08.24-.15.37-.2.13-.06.27-.1.41-.12.71-.14,1.46.09,1.96.59.41.41.64.97.64,1.54,0,.14-.01.28-.04.43ZM37.16,27.9c-.1.1-.21.19-.33.27-.12.08-.24.14-.37.2-.14.05-.27.09-.41.12-.14.03-.28.04-.43.04-.57,0-1.13-.23-1.54-.64-.41-.41-.64-.96-.64-1.54,0-.14.01-.29.04-.43.03-.14.07-.28.12-.41.05-.13.12-.26.2-.38.08-.12.17-.23.27-.33.5-.5,1.25-.74,1.96-.6.14.03.28.07.41.13.13.05.25.12.37.2.12.08.23.17.33.27s.2.21.27.33.15.25.2.38c.05.13.09.27.12.41.03.14.04.28.04.43,0,.57-.23,1.13-.64,1.54ZM44.93,32.16c-.41.66-1.12,1.02-1.85,1.02-.4,0-.79-.11-1.15-.33-1.02-.63-1.33-1.97-.69-3,.63-1.02,1.97-1.33,3-.7,1.02.64,1.33,1.98.7,3ZM52.08,37.2c-.41.4-.97.63-1.54.63-.14,0-.28-.01-.42-.04-.14-.03-.28-.07-.41-.12-.14-.05-.26-.12-.38-.2-.12-.08-.23-.17-.33-.27-.41-.41-.64-.97-.64-1.54,0-.14.02-.28.04-.43.03-.14.07-.27.12-.41.06-.13.12-.25.2-.37.08-.12.17-.23.27-.33s.21-.2.33-.27.24-.15.38-.2c.13-.05.27-.09.4-.12.28-.05.57-.05.85,0,.14.03.28.07.41.12.14.05.26.12.38.2.12.08.23.17.33.27s.19.21.27.33c.08.12.14.24.2.37.05.14.09.27.12.41.02.14.04.28.04.43,0,.57-.24,1.13-.64,1.54ZM83.57,10.99c-.4-.41-.63-.97-.63-1.54,0-.14.01-.29.04-.43.03-.14.07-.28.12-.41.05-.14.12-.26.2-.38.08-.12.17-.23.27-.33.51-.5,1.26-.74,1.97-.6.14.03.27.07.41.12.13.06.25.12.37.2.12.08.23.17.33.27s.2.21.27.33c.08.12.15.24.2.38.05.13.09.27.12.41.03.14.04.28.04.43,0,.57-.23,1.13-.64,1.54-.1.1-.21.19-.33.27-.12.08-.24.14-.37.2-.14.05-.27.09-.41.12-.14.02-.28.04-.43.04s-.28-.02-.43-.04c-.14-.03-.28-.07-.41-.12-.13-.06-.26-.12-.38-.2-.12-.08-.23-.17-.33-.27ZM84.22,16.18c-.23-1.18.54-2.32,1.72-2.55,1.18-.23,2.32.54,2.55,1.71.23,1.18-.54,2.33-1.71,2.56-.14.03-.28.04-.43.04-1.02,0-1.93-.72-2.13-1.76ZM89.14,23.61c-.1.1-.21.19-.33.27-.12.08-.24.15-.38.2-.13.06-.27.1-.41.12-.14.03-.28.05-.43.05s-.28-.02-.43-.05c-.14-.02-.27-.07-.4-.12-.14-.05-.26-.12-.38-.2-.12-.08-.23-.17-.33-.27-.41-.41-.64-.97-.64-1.54,0-.14.02-.28.04-.43.03-.14.07-.27.12-.41.06-.13.12-.25.2-.37.08-.12.17-.23.27-.33s.21-.2.33-.27c.12-.08.24-.15.38-.2.13-.05.27-.09.4-.12.28-.05.57-.05.85,0,.14.03.28.07.41.12.14.05.26.12.38.2.12.08.23.17.33.27s.19.21.27.33c.08.12.14.24.2.37.05.14.09.27.12.41.02.14.04.28.04.43,0,.57-.24,1.13-.64,1.54ZM121.3,22.5c-.03.14-.07.28-.12.41s-.12.26-.2.38c-.08.12-.17.23-.27.33-.1.1-.21.19-.33.27-.12.08-.24.15-.37.2-.14.06-.27.1-.41.12-.14.03-.28.05-.43.05s-.28-.02-.43-.05c-.14-.02-.28-.07-.41-.12-.13-.05-.26-.12-.38-.2-.12-.08-.23-.17-.33-.27-.4-.41-.63-.97-.63-1.54,0-.14.01-.28.04-.43.03-.14.07-.27.12-.41.05-.13.12-.25.2-.37.08-.12.17-.23.27-.33.51-.51,1.26-.74,1.97-.6.14.03.27.07.41.12.13.05.25.12.37.2.12.08.23.17.33.27.1.1.2.21.27.33.08.12.15.24.2.37.05.14.09.27.12.41.03.14.04.28.04.43s-.01.28-.04.43ZM122.54,16.18c-.2,1.04-1.11,1.76-2.13,1.76-.14,0-.28-.02-.42-.04-1.18-.23-1.95-1.38-1.72-2.56.23-1.18,1.38-1.94,2.56-1.71,1.18.23,1.94,1.38,1.71,2.55ZM123.18,10.99c-.1.1-.21.19-.33.27-.12.08-.24.14-.38.2-.13.05-.27.09-.41.12-.14.02-.28.04-.42.04s-.29-.02-.43-.04c-.14-.03-.28-.07-.41-.12-.13-.06-.26-.12-.38-.2-.12-.08-.23-.17-.33-.27-.4-.41-.64-.97-.64-1.54,0-.14.02-.29.05-.43.02-.14.07-.28.12-.41.05-.14.12-.26.2-.38.08-.12.17-.23.27-.33.41-.4.96-.64,1.54-.64s1.13.24,1.54.64c.1.1.19.21.27.33.08.12.14.24.2.38.05.13.09.27.12.41.02.14.04.28.04.43,0,.57-.23,1.13-.64,1.54ZM157.76,37.2c-.1.1-.21.19-.33.27-.12.08-.24.15-.37.2-.13.05-.27.09-.41.12-.14.03-.28.04-.43.04s-.28-.01-.43-.04c-.14-.03-.28-.07-.41-.12s-.26-.12-.37-.2c-.12-.08-.24-.17-.34-.27-.4-.41-.63-.97-.63-1.54,0-.14.01-.28.04-.43.03-.14.07-.27.12-.41.05-.13.12-.25.2-.37.08-.12.17-.23.27-.33.41-.41.97-.64,1.54-.64s1.13.23,1.54.64c.1.1.2.21.27.33.08.12.15.24.2.37.05.14.09.27.12.41.03.14.04.28.04.43,0,.57-.23,1.13-.64,1.54ZM164.83,32.85c-.36.22-.76.33-1.15.33-.73,0-1.44-.36-1.85-1.02-.64-1.02-.33-2.36.69-3,1.02-.63,2.36-.32,3,.7.63,1.02.32,2.36-.7,3ZM172.67,27.9c-.41.41-.97.64-1.54.64-.15,0-.29-.01-.43-.04-.14-.03-.27-.07-.41-.12-.13-.06-.25-.12-.37-.2-.12-.08-.23-.17-.33-.27-.41-.41-.64-.96-.64-1.54,0-.14.01-.29.04-.43.03-.14.07-.28.12-.41.06-.13.12-.26.2-.38.08-.12.17-.23.27-.33s.21-.19.33-.27c.12-.08.24-.14.37-.2.14-.06.27-.1.41-.13.71-.14,1.46.09,1.97.6.1.1.19.21.27.33.08.12.14.25.2.38.06.13.1.27.13.41.02.14.04.28.04.43,0,.57-.24,1.13-.64,1.54ZM178.82,65.21c-.02.14-.06.27-.12.41-.05.13-.12.25-.2.37-.08.12-.17.23-.27.33s-.21.2-.33.27-.25.15-.38.2c-.13.05-.27.09-.41.12s-.28.04-.43.04-.28-.01-.43-.04c-.14-.03-.27-.07-.41-.12-.13-.05-.25-.12-.37-.2s-.23-.17-.33-.27-.2-.21-.27-.33c-.08-.12-.15-.24-.2-.37-.05-.14-.09-.27-.12-.41-.03-.14-.04-.28-.04-.43,0-.57.23-1.13.64-1.54s.96-.64,1.54-.64,1.13.24,1.54.64c.4.41.64.97.64,1.54,0,.14-.02.28-.05.43ZM185.44,66.96c-1.2,0-2.17-.98-2.17-2.18s.97-2.18,2.17-2.18,2.18.97,2.18,2.18-.97,2.18-2.18,2.18ZM196.33,65.21c-.03.14-.07.27-.12.41-.05.13-.12.25-.2.37-.08.12-.17.23-.27.33s-.21.2-.33.27c-.12.08-.24.15-.37.2-.13.05-.27.09-.41.12-.14.03-.28.04-.43.04s-.28-.01-.43-.04c-.14-.03-.28-.07-.41-.12s-.26-.12-.37-.2c-.12-.08-.23-.17-.33-.27s-.2-.21-.27-.33c-.08-.12-.15-.24-.2-.37-.05-.14-.09-.27-.12-.41-.03-.14-.04-.28-.04-.43,0-.57.23-1.13.64-1.54.1-.1.21-.19.32-.27.12-.08.25-.15.38-.2.13-.06.27-.1.41-.12.28-.06.57-.06.85,0,.14.02.28.06.41.12.13.05.25.12.37.2.12.08.23.17.33.27.41.41.64.97.64,1.54,0,.14-.01.28-.04.43Z"/>
      <g>
        <g>
          <path class="cls-2" d="M54.36,53.48c-.12-.55.25-1.15.82-1.35,1.67-.6,3.6-1.95,4.62-3.25.38-.47,1.02-.6,1.5-.25.52.38.67,1.1.3,1.6-1.25,1.65-3.75,3.35-5.95,4.07-.57.2-1.17-.2-1.3-.82ZM60.56,54.13c0-.6.52-1.05,1.12-.97,4.87.45,5.45-2.05,3.75-4.15-1.32-1.67-5.27-1.85-3.75-6.3.2-.6.85-.92,1.47-.75.55.17.85.77.67,1.37-1.07,3.25,2.07,1.55,4.07,5.45,1.77,4.3-.87,7.07-6.27,6.6-.62-.05-1.1-.6-1.07-1.25ZM66.21,41.06c-.8-1.27-2.15-2.35-3.55-2.82-.6-.23-.9-.82-.7-1.37.25-.62.9-.97,1.52-.75,1.82.65,3.55,2.05,4.57,3.67.32.52.15,1.25-.38,1.62-.47.32-1.12.17-1.47-.35ZM73.16,53.35c-.62-1.92-1.9-3.2-3.77-3.75-.58-.17-.95-.77-.8-1.32.17-.65.82-1.02,1.42-.85,2.62.72,4.55,2.65,5.37,5.4.2.6-.2,1.22-.82,1.37-.6.12-1.2-.25-1.4-.85Z"/>
          <path class="cls-2" d="M91.56,55.48c-3.27-7.72-6.07-7.77-6.07-10.37,0-2.02,3.07-3.17,5.6-8.87.25-.58.92-.85,1.5-.58.57.25.85.95.6,1.52-1.45,3.27-2.87,4.92-4.55,6.75-1.22,1.37-1.2,1.35.08,2.75,1.92,2.07,3.57,4.25,5,7.9.22.6-.08,1.27-.65,1.52-.6.25-1.27-.05-1.5-.62Z"/>
          <path class="cls-2" d="M118.25,55.88c-1.5-.08-2.62-.58-3.45-1.47-.4-.45-.32-1.12.15-1.55.4-.35,1.02-.32,1.47.05,2.3,1.87,5.97.2,5.52-2.45-.6-3.47-4.77-4.32-9.32-1.95.02,1.7-.05,3.42-.2,5.05-.27,2.15-1.65,2.8-3.97,1.9-2.62-1.1-4.52-2.67-.97-5.9.97-.87,1.97-1.62,2.97-2.25-.03-1.45-.1-2.85-.23-4.17-1.42.25-2.87.43-4.37.5-.6.03-1.1-.45-1.1-1.05-.02-.58.45-1.07,1.02-1.1,1.45-.08,2.87-.23,4.2-.5-.2-1.45-.45-2.75-.72-3.8-.15-.58.17-1.15.75-1.3.57-.13,1.2.2,1.35.8.27,1.02.52,2.35.72,3.82.82-.23,1.6-.47,2.32-.77.55-.23,1.17.03,1.42.55.25.55,0,1.17-.55,1.4-.92.38-1.92.7-2.95.97.1,1.12.2,2.32.25,3.55,2.52-1.1,5.07-1.4,7.3-.8,6.55,1.77,5.17,10.85-1.62,10.47ZM110.32,53c.05-.65.1-2,.12-3.15-.85.6-1.57,1.22-2.15,1.82-.87.87-.67,1.02-.05,1.32,2.17,1.12,2,1.05,2.07,0ZM124.92,44.31c-.35.47-1,.55-1.47.2-1.27-.9-2.9-1.45-4.65-1.6-.58-.05-1.02-.55-1-1.12.05-.6.58-1.07,1.17-1.02,2.15.15,4.2.87,5.72,2,.5.35.58,1.05.23,1.55Z"/>
          <path class="cls-2" d="M145.43,44.78c-.2,2.62-.8,5.52-1.15,6.75-1,3.47-3.32,4.37-6.77,2.62-.52-.28-.73-.95-.43-1.5.28-.52.93-.72,1.47-.42,3.15,1.67,3.87.57,4.75-7.65.1-.92.1-2.57-3.7-1.8-1.15,4.55-2.97,9.25-5.2,12.65-.32.5-1,.62-1.5.27-.45-.35-.58-1.02-.25-1.5,2.12-3.22,3.7-7.1,4.72-10.97-1.05.15-2.05.2-3.3.1-.58-.03-1-.55-.95-1.17.07-.57.6-.97,1.2-.95,1.3.13,2.25.08,3.57-.17.3-1.5.52-3,.68-4.42.05-.57.57-1,1.15-.97.58.05,1.02.58.98,1.17-.13,1.22-.35,2.5-.63,3.82,5.2-.67,5.5,2.55,5.35,4.15ZM152.33,51.28c-.63.2-1.27-.17-1.45-.8-.9-3.27-2.8-6.35-4.6-8.27-.45-.5-.4-1.22.07-1.62.55-.45,1.32-.4,1.77.13,1.8,2.15,4.1,6.22,5,9.02.23.6-.15,1.3-.8,1.55Z"/>
        </g>
        <g>
          <path class="cls-2" d="M111.23,81.77c0,.77-.62,1.39-1.39,1.39s-1.42-.62-1.42-1.39v-12.31c0-1.18.97-2.15,2.15-2.15h6.31c1.18,0,2.15.97,2.15,2.15v.75c0,.77-.64,1.39-1.42,1.39s-1.39-.62-1.39-1.39v-.11h-4.98v3.26h5.19c.77,0,1.42.62,1.42,1.39s-.64,1.39-1.42,1.39h-5.19v5.62Z"/>
          <path class="cls-2" d="M125.84,82.95c-1.18,0-2.15-.97-2.15-2.15v-11.35c0-1.18.97-2.15,2.15-2.15h6.5c1.18,0,2.15.97,2.15,2.15v.84c0,.77-.64,1.39-1.42,1.39s-1.39-.62-1.39-1.39v-.19h-5.17v3.26h5.69c.77,0,1.39.62,1.39,1.42s-.62,1.39-1.39,1.39h-5.69v4.01h5.17v-.17c0-.77.62-1.39,1.39-1.39s1.42.62,1.42,1.39v.79c0,1.18-.97,2.15-2.15,2.15h-6.5Z"/>
          <path class="cls-2" d="M143.09,82.97c-.79,0-1.54-.32-2.08-.86l-1.03-1.03c-.64-.84-.86-1.42-.86-2.08v-1.05c0-.77.62-1.39,1.39-1.39s1.42.62,1.42,1.39c0,.02-.02.34-.02.36.02.88.11.84.77,1.5,0,.02.49.34.79.34h2.92c.3,0,.58-.11.77-.32.15-.15.32-.28.45-.45.28-.32.32-.49.32-.77v-.49c0-.75-.41-.92-1.01-1.12l-5.86-1.93c-.86-.28-1.76-.79-1.76-2.42v-1.39c0-.79.3-1.52.86-2.08l1.07-1.01c.54-.56,1.31-.86,2.1-.86h3.33c.77,0,1.61.3,2.17.86l1.01,1.01c.56.56.84,1.14.86,2.08v.84c0,.77-.62,1.39-1.39,1.39s-1.39-.62-1.39-1.39v-.45c0-.28-.13-.56-.32-.77l-.45-.45c-.21-.21-.49-.32-.79-.32-.75,0-1.99-.02-2.77-.02-.28,0-.49.04-.75.32-.09.13-.24.24-.45.47-.36.39-.28.62-.28,1.16,0,.28.19.51.45.6l6.59,2.23c.9.3,1.61,1.35,1.61,2.08v2.06c0,.79-.32,1.52-.86,2.08l-1.03,1.03c-.56.54-1.29.86-2.06.86h-3.71Z"/>
        </g>
        <g>
          <path class="cls-2" d="M55.1,66.74c-.52.32-1.2.1-1.45-.47-.23-.55,0-1.22.55-1.55,1.35-.77,2.92-2.02,4.02-3.05.57-.52,1.5-.52,2.1.05.75.7,1.45,1.27,2.37,1.77.5.3.72.9.52,1.42-.2.55-.82.77-1.32.5-1.1-.58-1.77-1.1-2.57-1.8-.6.52-1.25,1.05-1.9,1.55h3.5c.5,0,.9.4.9.9s-.4.87-.9.87h-3.65c-.5,0-.9-.4-.9-.87v-.15c-.43.3-.85.58-1.27.82ZM61.65,81.19h-4.55v.7c0,.55-.45,1.03-1.02,1.03s-1.05-.47-1.05-1.03v-12.4c0-.82.7-1.52,1.52-1.52h4.92c.82,0,1.52.7,1.52,1.52v4.62c0,.82-.7,1.52-1.52,1.52h-4.37v.8h4.77c.52,0,.97.45.97,1s-.45.97-.97.97h-4.77v.82h4.55c.52,0,.97.45.97.97s-.45.97-.97.97ZM61.02,69.84h-3.92v1.02h3.92v-1.02ZM57.1,73.77h3.92v-1.02h-3.92v1.02ZM75.8,82.22c-.17.55-.8.8-1.27.52-1.85-.98-3.65-2.55-5.2-4.42-1.5,1.77-3.4,3.4-5.72,4.42-.52.25-1.15-.03-1.37-.6-.2-.52.05-1.15.6-1.4,2.15-1.02,3.87-2.5,5.2-4.15-1.02-1.5-1.85-3.12-2.4-4.75-.2-.57.12-1.2.67-1.42.55-.22,1.15.08,1.32.62.4,1.27.97,2.52,1.67,3.7.77-1.27,1.35-2.57,1.72-3.82.17-.57.77-.87,1.3-.67.07.03.17.08.22.13-.72-.8-1.37-1.67-1.82-2.45-.27-.47-.1-1.1.42-1.37.5-.27,1.1-.1,1.42.38.72,1.15,1.77,2.37,2.62,3.07.47.38.65.97.45,1.47-.23.52-.87.75-1.35.42-.48-.32-.93-.72-1.37-1.15.15.25.2.58.1.9-.47,1.47-1.27,3.25-2.42,4.95,1.32,1.67,2.92,3.12,4.67,4.17.5.3.72.93.52,1.45ZM67.3,66.52c.55.3.75.92.47,1.45-.75,1.37-1.77,2.6-3.1,3.62-.47.38-1.15.25-1.5-.27-.3-.45-.17-1.1.3-1.47,1-.75,1.82-1.77,2.45-2.85.27-.5.87-.72,1.37-.47ZM64.25,66.39c-.57,0-1.05-.45-1.05-1.05s.47-1.05,1.05-1.05h3.95v-2.2c0-.6.5-1.1,1.1-1.1s1.07.5,1.07,1.1v2.2h4.07c.57,0,1.05.47,1.05,1.05s-.47,1.05-1.05,1.05h-10.2Z"/>
          <path class="cls-2" d="M101.42,70.82c.6,0,1.07.47,1.07,1.1,0,.57-.47,1.07-1.07,1.07h-8.47v6.65c0,2.5-1.57,3.35-5.65,3.15-.62-.05-1.07-.57-1.07-1.17.03-.6.55-1.07,1.15-1.05,2.92.12,3.37-.05,3.37-.92v-6.65h-8.57c-.6,0-1.07-.47-1.07-1.07s.47-1.1,1.07-1.1h8.57v-2.15c0-.6.5-1.1,1.1-1.1.25,0,.5.1.7.25,1.5-1,2.72-2.17,3.65-3.5h-10.95c-.6,0-1.1-.47-1.1-1.1,0-.57.47-1.07,1.1-1.07h12.95c.82,0,1.37.85,1,1.57-1.42,2.6-3.92,5.12-6.25,6.4v.7h8.47Z"/>
        </g>
      </g>
    </g>
  </g>
</svg>