<?xml version="1.0" encoding="UTF-8"?>
<svg id="_レイヤー_2" data-name="レイヤー 2" xmlns="http://www.w3.org/2000/svg" viewBox="0 0 198.75 98.75">
  <defs>
    <style>
      .cls-1 {
        fill: #e22a00;
        stroke-width: 0px;
      }
    </style>
  </defs>
  <g id="_レイヤー_1-2" data-name="レイヤー 1">
    <g>
      <g>
        <g>
          <path class="cls-1" d="M51.24,56.68c-.12-.55.25-1.15.82-1.35,1.67-.6,3.6-1.95,4.62-3.25.38-.47,1.02-.6,1.5-.25.52.38.67,1.1.3,1.6-1.25,1.65-3.75,3.35-5.95,4.07-.57.2-1.17-.2-1.3-.82ZM57.44,57.33c0-.6.52-1.05,1.12-.97,4.87.45,5.45-2.05,3.75-4.15-1.32-1.67-5.27-1.85-3.75-6.3.2-.6.85-.92,1.47-.75.55.17.85.77.67,1.37-1.07,3.25,2.07,1.55,4.07,5.45,1.77,4.3-.87,7.07-6.27,6.6-.62-.05-1.1-.6-1.07-1.25ZM63.09,44.25c-.8-1.27-2.15-2.35-3.55-2.82-.6-.23-.9-.82-.7-1.37.25-.62.9-.97,1.52-.75,1.82.65,3.55,2.05,4.57,3.67.32.52.15,1.25-.38,1.62-.47.32-1.12.17-1.47-.35ZM70.04,56.55c-.62-1.92-1.9-3.2-3.77-3.75-.58-.17-.95-.77-.8-1.32.17-.65.82-1.02,1.42-.85,2.62.72,4.55,2.65,5.37,5.4.2.6-.2,1.22-.82,1.37-.6.12-1.2-.25-1.4-.85Z"/>
          <path class="cls-1" d="M88.44,58.68c-3.27-7.72-6.07-7.77-6.07-10.37,0-2.02,3.07-3.17,5.6-8.87.25-.58.92-.85,1.5-.58.57.25.85.95.6,1.52-1.45,3.27-2.87,4.92-4.55,6.75-1.22,1.37-1.2,1.35.08,2.75,1.92,2.07,3.57,4.25,5,7.9.22.6-.08,1.27-.65,1.52-.6.25-1.27-.05-1.5-.62Z"/>
          <path class="cls-1" d="M115.13,59.08c-1.5-.08-2.62-.58-3.45-1.47-.4-.45-.32-1.12.15-1.55.4-.35,1.02-.32,1.47.05,2.3,1.87,5.97.2,5.52-2.45-.6-3.47-4.77-4.32-9.32-1.95.02,1.7-.05,3.42-.2,5.05-.27,2.15-1.65,2.8-3.97,1.9-2.62-1.1-4.52-2.67-.97-5.9.97-.87,1.97-1.62,2.97-2.25-.03-1.45-.1-2.85-.23-4.17-1.42.25-2.87.43-4.37.5-.6.03-1.1-.45-1.1-1.05-.02-.58.45-1.07,1.02-1.1,1.45-.08,2.87-.23,4.2-.5-.2-1.45-.45-2.75-.72-3.8-.15-.58.17-1.15.75-1.3.57-.13,1.2.2,1.35.8.27,1.02.52,2.35.72,3.82.82-.23,1.6-.47,2.32-.77.55-.23,1.17.03,1.42.55.25.55,0,1.17-.55,1.4-.92.38-1.92.7-2.95.97.1,1.12.2,2.32.25,3.55,2.52-1.1,5.07-1.4,7.3-.8,6.55,1.77,5.17,10.85-1.62,10.47ZM107.21,56.2c.05-.65.1-2,.12-3.15-.85.6-1.57,1.22-2.15,1.82-.87.87-.67,1.02-.05,1.32,2.17,1.12,2,1.05,2.07,0ZM121.8,47.5c-.35.47-1,.55-1.47.2-1.27-.9-2.9-1.45-4.65-1.6-.58-.05-1.02-.55-1-1.12.05-.6.58-1.07,1.17-1.02,2.15.15,4.2.87,5.72,2,.5.35.58,1.05.23,1.55Z"/>
          <path class="cls-1" d="M142.31,47.98c-.2,2.62-.8,5.52-1.15,6.75-1,3.47-3.32,4.37-6.77,2.62-.52-.28-.73-.95-.43-1.5.28-.52.93-.72,1.47-.42,3.15,1.67,3.87.57,4.75-7.65.1-.92.1-2.57-3.7-1.8-1.15,4.55-2.97,9.25-5.2,12.65-.32.5-1,.62-1.5.27-.45-.35-.58-1.02-.25-1.5,2.12-3.22,3.7-7.1,4.72-10.97-1.05.15-2.05.2-3.3.1-.58-.03-1-.55-.95-1.17.07-.57.6-.97,1.2-.95,1.3.13,2.25.08,3.57-.17.3-1.5.52-3,.68-4.42.05-.57.57-1,1.15-.97.58.05,1.02.58.98,1.17-.13,1.22-.35,2.5-.63,3.82,5.2-.67,5.5,2.55,5.35,4.15ZM149.21,54.48c-.63.2-1.27-.17-1.45-.8-.9-3.27-2.8-6.35-4.6-8.27-.45-.5-.4-1.22.07-1.62.55-.45,1.32-.4,1.77.13,1.8,2.15,4.1,6.22,5,9.02.23.6-.15,1.3-.8,1.55Z"/>
        </g>
        <g>
          <path class="cls-1" d="M108.11,84.96c0,.77-.62,1.39-1.39,1.39s-1.42-.62-1.42-1.39v-12.31c0-1.18.97-2.15,2.15-2.15h6.31c1.18,0,2.15.97,2.15,2.15v.75c0,.77-.64,1.39-1.42,1.39s-1.39-.62-1.39-1.39v-.11h-4.98v3.26h5.19c.77,0,1.42.62,1.42,1.39s-.64,1.39-1.42,1.39h-5.19v5.62Z"/>
          <path class="cls-1" d="M122.72,86.14c-1.18,0-2.15-.97-2.15-2.15v-11.35c0-1.18.97-2.15,2.15-2.15h6.5c1.18,0,2.15.97,2.15,2.15v.84c0,.77-.64,1.39-1.42,1.39s-1.39-.62-1.39-1.39v-.19h-5.17v3.26h5.69c.77,0,1.39.62,1.39,1.42s-.62,1.39-1.39,1.39h-5.69v4.01h5.17v-.17c0-.77.62-1.39,1.39-1.39s1.42.62,1.42,1.39v.79c0,1.18-.97,2.15-2.15,2.15h-6.5Z"/>
          <path class="cls-1" d="M139.97,86.17c-.79,0-1.54-.32-2.08-.86l-1.03-1.03c-.64-.84-.86-1.42-.86-2.08v-1.05c0-.77.62-1.39,1.39-1.39s1.42.62,1.42,1.39c0,.02-.02.34-.02.36.02.88.11.84.77,1.5,0,.02.49.34.79.34h2.92c.3,0,.58-.11.77-.32.15-.15.32-.28.45-.45.28-.32.32-.49.32-.77v-.49c0-.75-.41-.92-1.01-1.12l-5.86-1.93c-.86-.28-1.76-.79-1.76-2.42v-1.39c0-.79.3-1.52.86-2.08l1.07-1.01c.54-.56,1.31-.86,2.1-.86h3.33c.77,0,1.61.3,2.17.86l1.01,1.01c.56.56.84,1.14.86,2.08v.84c0,.77-.62,1.39-1.39,1.39s-1.39-.62-1.39-1.39v-.45c0-.28-.13-.56-.32-.77l-.45-.45c-.21-.21-.49-.32-.79-.32-.75,0-1.99-.02-2.77-.02-.28,0-.49.04-.75.32-.09.13-.24.24-.45.47-.36.39-.28.62-.28,1.16,0,.28.19.51.45.6l6.59,2.23c.9.3,1.61,1.35,1.61,2.08v2.06c0,.79-.32,1.52-.86,2.08l-1.03,1.03c-.56.54-1.29.86-2.06.86h-3.71Z"/>
        </g>
        <g>
          <path class="cls-1" d="M51.98,69.94c-.52.32-1.2.1-1.45-.47-.23-.55,0-1.22.55-1.55,1.35-.77,2.92-2.02,4.02-3.05.57-.52,1.5-.52,2.1.05.75.7,1.45,1.27,2.37,1.77.5.3.72.9.52,1.42-.2.55-.82.77-1.32.5-1.1-.58-1.77-1.1-2.57-1.8-.6.52-1.25,1.05-1.9,1.55h3.5c.5,0,.9.4.9.9s-.4.87-.9.87h-3.65c-.5,0-.9-.4-.9-.87v-.15c-.43.3-.85.58-1.27.82ZM58.53,84.39h-4.55v.7c0,.55-.45,1.03-1.02,1.03s-1.05-.47-1.05-1.03v-12.4c0-.82.7-1.52,1.52-1.52h4.92c.82,0,1.52.7,1.52,1.52v4.62c0,.82-.7,1.52-1.52,1.52h-4.37v.8h4.77c.52,0,.97.45.97,1s-.45.97-.97.97h-4.77v.82h4.55c.52,0,.97.45.97.97s-.45.97-.97.97ZM57.9,73.04h-3.92v1.02h3.92v-1.02ZM53.98,76.97h3.92v-1.02h-3.92v1.02ZM72.68,85.41c-.17.55-.8.8-1.27.52-1.85-.98-3.65-2.55-5.2-4.42-1.5,1.77-3.4,3.4-5.72,4.42-.52.25-1.15-.03-1.37-.6-.2-.52.05-1.15.6-1.4,2.15-1.02,3.87-2.5,5.2-4.15-1.02-1.5-1.85-3.12-2.4-4.75-.2-.57.12-1.2.67-1.42.55-.22,1.15.08,1.32.62.4,1.27.97,2.52,1.67,3.7.77-1.27,1.35-2.57,1.72-3.82.17-.57.77-.87,1.3-.67.07.03.17.08.22.13-.72-.8-1.37-1.67-1.82-2.45-.27-.47-.1-1.1.42-1.37.5-.27,1.1-.1,1.42.38.72,1.15,1.77,2.37,2.62,3.07.47.38.65.97.45,1.47-.23.52-.87.75-1.35.42-.48-.32-.93-.72-1.37-1.15.15.25.2.58.1.9-.47,1.47-1.27,3.25-2.42,4.95,1.32,1.67,2.92,3.12,4.67,4.17.5.3.72.93.52,1.45ZM64.18,69.72c.55.3.75.92.47,1.45-.75,1.37-1.77,2.6-3.1,3.62-.47.38-1.15.25-1.5-.27-.3-.45-.17-1.1.3-1.47,1-.75,1.82-1.77,2.45-2.85.27-.5.87-.72,1.37-.47ZM61.13,69.59c-.57,0-1.05-.45-1.05-1.05s.47-1.05,1.05-1.05h3.95v-2.2c0-.6.5-1.1,1.1-1.1s1.07.5,1.07,1.1v2.2h4.07c.57,0,1.05.47,1.05,1.05s-.47,1.05-1.05,1.05h-10.2Z"/>
          <path class="cls-1" d="M98.3,74.02c.6,0,1.07.47,1.07,1.1,0,.57-.47,1.07-1.07,1.07h-8.47v6.65c0,2.5-1.57,3.35-5.65,3.15-.62-.05-1.07-.57-1.07-1.17.03-.6.55-1.07,1.15-1.05,2.92.12,3.37-.05,3.37-.92v-6.65h-8.57c-.6,0-1.07-.47-1.07-1.07s.47-1.1,1.07-1.1h8.57v-2.15c0-.6.5-1.1,1.1-1.1.25,0,.5.1.7.25,1.5-1,2.72-2.17,3.65-3.5h-10.95c-.6,0-1.1-.47-1.1-1.1,0-.57.47-1.07,1.1-1.07h12.95c.82,0,1.37.85,1,1.57-1.42,2.6-3.92,5.12-6.25,6.4v.7h8.47Z"/>
        </g>
      </g>
      <g>
        <path class="cls-1" d="M192.2,98.75H6.55c-.65,0-1.26-.31-1.65-.83-4.6-6.19-6.28-18.87-3.67-27.69,1.37-4.62,3.81-7.95,7.13-9.74-2.36-21.78,14.56-33.93,22.29-37.27,6.43-11.62,16.72-16.47,24.29-18.5,10.45-2.8,20.81-1.67,26.13.89C89.3,0,94.53,0,99.21,0h.34c4.67,0,9.9,0,18.13,5.62,5.32-2.56,15.68-3.69,26.13-.89,7.57,2.03,17.86,6.88,24.29,18.5,7.74,3.33,24.65,15.49,22.3,37.27,3.31,1.78,5.76,5.12,7.13,9.74,2.61,8.82.93,21.5-3.67,27.69-.39.52-1,.83-1.65.83ZM7.64,94.65h183.48c3.08-5.03,4.76-15.52,2.47-23.26-1.2-4.07-3.27-6.67-6.13-7.74-.91-.34-1.45-1.26-1.31-2.22,3.06-20.8-13.57-32.08-20.24-34.68-.46-.18-.84-.52-1.07-.95-5.71-10.79-15.16-15.26-22.09-17.12-10.72-2.87-20.72-1.05-24.11,1.08-.71.44-1.61.42-2.29-.07-7.77-5.59-12.36-5.59-16.79-5.59h-.34c-4.43,0-9.02,0-16.79,5.59-.68.49-1.58.52-2.29.07-3.39-2.13-13.4-3.94-24.11-1.08-6.92,1.85-16.38,6.33-22.09,17.12-.23.44-.61.77-1.07.95-6.67,2.59-23.3,13.88-20.24,34.68.14.96-.41,1.88-1.31,2.22-2.87,1.07-4.93,3.67-6.13,7.74-2.29,7.74-.61,18.23,2.47,23.26Z"/>
        <g>
          <path class="cls-1" d="M12.91,64.19c-.13,0-.27-.01-.4-.04-.13-.03-.26-.06-.38-.11-.12-.05-.24-.11-.35-.19-.11-.08-.22-.16-.31-.26-.38-.38-.6-.91-.6-1.45s.22-1.07.6-1.45c.47-.47,1.18-.69,1.85-.56.13.02.26.06.38.11.12.05.24.11.35.19.11.07.22.16.31.25.38.38.6.91.6,1.45s-.22,1.07-.6,1.45c-.1.1-.2.18-.31.26-.11.07-.23.14-.35.19-.12.05-.25.09-.38.11s-.27.04-.4.04Z"/>
          <path class="cls-1" d="M20.41,65.87c-1.1-.24-1.81-1.33-1.57-2.44h0c.24-1.1,1.33-1.81,2.44-1.57h0c1.1.24,1.81,1.33,1.57,2.44h0c-.21.96-1.06,1.61-2,1.61h0c-.14,0-.29-.01-.44-.05Z"/>
          <path class="cls-1" d="M28.79,67.63c-.13,0-.27-.01-.4-.04-.13-.02-.26-.06-.39-.11s-.24-.11-.35-.19c-.11-.07-.22-.16-.31-.25-.38-.38-.6-.91-.6-1.45,0-.13.01-.27.04-.4.03-.13.06-.26.11-.39.06-.12.11-.24.19-.35.08-.11.16-.22.26-.31.09-.1.2-.18.31-.26.11-.07.23-.14.35-.19.12-.05.25-.09.39-.11.26-.06.53-.06.8,0,.13.03.26.06.38.11.12.05.24.11.35.19.11.08.22.16.31.26s.18.2.25.31c.07.11.14.23.19.35.05.12.09.25.11.39.03.13.04.27.04.4s-.01.27-.04.4c-.02.13-.06.26-.11.38-.05.12-.11.24-.19.35-.07.11-.16.22-.25.31-.1.09-.2.18-.31.25-.11.07-.23.14-.35.19s-.25.09-.38.11c-.13.03-.27.04-.4.04Z"/>
        </g>
        <g>
          <path class="cls-1" d="M34.83,28.68c-.13,0-.27-.01-.4-.04-.13-.03-.26-.06-.38-.11-.12-.06-.24-.11-.35-.19-.11-.08-.22-.16-.31-.26s-.18-.2-.25-.31c-.07-.11-.14-.23-.19-.35-.05-.12-.09-.25-.11-.39-.03-.13-.04-.27-.04-.4s.01-.27.04-.4c.02-.13.06-.26.11-.38.05-.12.11-.24.19-.35.07-.11.16-.22.25-.31.39-.38.91-.6,1.45-.6s1.07.22,1.45.6c.1.1.18.2.26.31.07.11.14.23.19.35.05.12.09.25.11.38.03.13.04.27.04.4s-.01.27-.04.4c-.02.13-.06.26-.11.39-.05.12-.11.24-.19.35-.07.11-.16.22-.26.31-.09.1-.2.18-.31.26-.11.07-.23.13-.35.19-.12.05-.25.09-.38.11-.13.03-.27.04-.4.04Z"/>
          <path class="cls-1" d="M40.7,33.09c-.93-.64-1.18-1.91-.54-2.85h0c.63-.94,1.91-1.18,2.85-.55h0c.93.64,1.18,1.91.54,2.85h0c-.4.58-1.04.9-1.7.9h0c-.4,0-.8-.11-1.15-.35Z"/>
          <path class="cls-1" d="M48.87,38.2c-.13,0-.27-.01-.4-.04-.13-.03-.26-.07-.39-.12-.12-.05-.24-.11-.35-.19-.11-.07-.22-.16-.31-.25-.38-.38-.6-.91-.6-1.45,0-.13.01-.27.04-.4.03-.13.06-.26.11-.38.05-.12.11-.24.19-.35.07-.11.16-.22.26-.31.38-.38.91-.6,1.45-.6s1.07.22,1.45.6c.09.1.18.2.25.31.07.11.14.23.19.35.05.12.09.25.11.38.03.13.04.27.04.4,0,.54-.22,1.07-.6,1.45-.1.09-.2.18-.31.25-.11.07-.23.14-.35.19-.12.05-.25.09-.38.12-.13.02-.27.04-.4.04Z"/>
        </g>
        <g>
          <path class="cls-1" d="M81.27,12.38c-.13,0-.27-.01-.4-.04-.13-.03-.26-.06-.39-.12-.12-.05-.24-.11-.35-.18-.11-.08-.22-.16-.31-.26-.38-.38-.6-.91-.6-1.45s.22-1.07.6-1.45c.1-.09.2-.18.31-.25.11-.07.23-.14.35-.19s.25-.09.39-.12c.26-.05.53-.05.8,0,.13.03.26.07.38.12s.24.11.35.19c.11.07.22.16.31.25.09.1.18.2.25.31.07.11.14.23.19.35.05.12.09.25.11.38.03.13.04.27.04.4s-.01.27-.04.4c-.02.13-.06.26-.11.39-.05.12-.11.24-.19.35-.07.11-.16.22-.25.31-.38.38-.91.6-1.45.6Z"/>
          <path class="cls-1" d="M81.43,19c-.29-1.09.37-2.22,1.46-2.5h0c1.09-.29,2.21.37,2.5,1.46h0c.29,1.1-.37,2.22-1.46,2.5h0c-.17.05-.35.07-.52.07h0c-.91,0-1.74-.61-1.98-1.53Z"/>
          <path class="cls-1" d="M85.55,28.68c-.54,0-1.07-.22-1.45-.6-.38-.38-.6-.91-.6-1.45,0-.13.01-.27.04-.4.03-.13.07-.26.12-.38.05-.12.11-.24.19-.35.07-.11.16-.22.25-.31.48-.47,1.18-.69,1.85-.56.13.03.26.07.38.12.12.05.24.11.35.19.11.07.22.16.31.25.1.1.18.2.25.31.08.11.14.23.19.35.06.12.09.25.12.38.03.13.04.27.04.4,0,.54-.22,1.07-.6,1.45-.1.1-.2.18-.31.26-.11.07-.23.13-.35.18-.12.06-.25.09-.38.12-.13.03-.27.04-.4.04Z"/>
        </g>
        <g>
          <path class="cls-1" d="M186.12,65.15c-.13,0-.27-.01-.4-.04-.13-.03-.26-.06-.38-.11-.12-.06-.24-.11-.35-.19-.11-.07-.22-.16-.31-.25-.38-.38-.6-.91-.6-1.45,0-.13.01-.27.04-.4.02-.13.06-.26.11-.38.05-.12.11-.24.19-.35.07-.11.16-.22.26-.31.47-.47,1.18-.69,1.85-.56.13.03.26.07.38.12.12.05.24.11.35.19.11.07.22.16.31.25.38.38.6.91.6,1.45s-.22,1.07-.6,1.45c-.1.1-.2.18-.31.25-.11.08-.23.14-.35.19-.12.05-.25.09-.38.11-.13.03-.27.04-.4.04Z"/>
          <path class="cls-1" d="M176,65.27c-.23-1.11.47-2.2,1.57-2.43h0c1.11-.24,2.2.46,2.43,1.57h0c.24,1.1-.46,2.19-1.57,2.43h0c-.14.03-.29.05-.43.05h0c-.94,0-1.79-.66-2-1.62Z"/>
          <path class="cls-1" d="M169.88,68.64c-.13,0-.27-.01-.4-.04-.13-.03-.26-.06-.38-.11-.12-.06-.24-.11-.35-.19-.11-.08-.22-.16-.31-.26-.38-.38-.6-.91-.6-1.45,0-.13.01-.27.04-.4.03-.13.07-.26.12-.38s.11-.24.19-.35c.07-.11.16-.22.25-.31.1-.09.2-.18.31-.25.11-.07.23-.14.35-.19.12-.05.25-.09.38-.12.67-.13,1.38.09,1.85.56.1.1.18.2.26.31.07.11.13.23.19.35.05.12.09.25.11.38.03.13.04.27.04.4,0,.54-.22,1.07-.6,1.45-.09.1-.2.18-.31.26-.11.07-.23.13-.35.19-.12.05-.25.09-.39.11-.13.03-.27.04-.4.04Z"/>
        </g>
        <g>
          <path class="cls-1" d="M164.11,28.68c-.54,0-1.07-.22-1.45-.6-.1-.09-.18-.2-.26-.31-.07-.11-.13-.23-.19-.35-.05-.12-.09-.25-.11-.39-.03-.13-.04-.27-.04-.4,0-.54.22-1.07.6-1.45s.91-.6,1.45-.6,1.07.22,1.45.6.6.91.6,1.45c0,.13-.01.27-.04.4-.03.13-.07.26-.12.39-.05.12-.11.24-.19.35-.07.11-.16.22-.25.31s-.2.18-.31.26c-.11.07-.23.13-.35.19-.12.05-.25.09-.38.11-.13.03-.27.04-.4.04Z"/>
          <path class="cls-1" d="M155.4,32.54c-.63-.93-.39-2.21.55-2.85h0c.93-.63,2.21-.39,2.84.55h0c.64.93.39,2.21-.54,2.85h0c-.35.24-.75.35-1.15.35h0c-.66,0-1.3-.32-1.7-.9Z"/>
          <path class="cls-1" d="M150.08,38.2c-.13,0-.27,0-.4-.04-.13-.03-.26-.07-.39-.12-.12-.05-.24-.11-.35-.19s-.22-.16-.31-.25c-.38-.38-.6-.91-.6-1.45,0-.13.01-.27.04-.4.03-.13.06-.26.11-.38.05-.12.11-.24.19-.35.07-.11.16-.22.26-.31.38-.38.91-.6,1.45-.6s1.07.22,1.45.6c.09.09.18.2.25.31.07.11.14.23.19.35.05.12.09.25.11.38.03.13.04.27.04.4,0,.54-.22,1.07-.6,1.45-.1.09-.2.18-.31.25s-.23.14-.35.19c-.12.05-.25.09-.38.12-.13.03-.27.04-.4.04Z"/>
        </g>
        <g>
          <path class="cls-1" d="M116.93,11.79c-.13,0-.27-.01-.4-.04-.13-.03-.26-.06-.38-.11-.12-.06-.24-.11-.35-.19-.11-.08-.22-.16-.31-.26-.38-.38-.6-.91-.6-1.45,0-.13.01-.27.04-.4.03-.13.07-.26.12-.38.05-.12.11-.24.19-.35.07-.11.16-.22.25-.31.1-.09.2-.18.31-.25.11-.07.23-.14.35-.19.12-.05.25-.09.38-.12.27-.05.54-.05.8,0,.13.03.26.07.39.12.12.05.24.11.35.19.11.07.22.16.31.25s.18.2.26.31c.07.11.14.23.19.35.05.12.09.25.11.38.03.13.04.27.04.4,0,.54-.22,1.07-.6,1.45-.09.1-.2.18-.31.26-.11.07-.23.13-.35.19-.12.05-.25.09-.39.11-.13.03-.27.04-.4.04Z"/>
          <path class="cls-1" d="M114.13,19.83c-1.09-.3-1.73-1.44-1.43-2.53h0c.3-1.09,1.43-1.72,2.53-1.42h0c1.09.3,1.72,1.43,1.42,2.52h0c-.25.91-1.08,1.5-1.97,1.5h0c-.18,0-.36-.02-.55-.07Z"/>
          <path class="cls-1" d="M112.42,28.03c-.13,0-.27-.01-.4-.04-.13-.03-.26-.06-.38-.11-.12-.06-.24-.11-.35-.19-.11-.08-.22-.16-.31-.26s-.18-.2-.25-.31c-.07-.11-.14-.23-.19-.35s-.09-.25-.11-.39c-.03-.13-.04-.27-.04-.4s.01-.27.04-.4c.02-.13.06-.26.11-.38s.11-.24.19-.35c.07-.11.16-.22.25-.31.48-.47,1.18-.69,1.85-.56.13.03.26.07.39.12.12.05.24.11.35.19.11.07.22.16.31.25s.18.2.26.31c.07.11.14.23.19.35.05.12.09.25.11.38.03.13.04.27.04.4s-.01.27-.04.4c-.03.13-.06.26-.11.39-.05.12-.11.24-.19.35-.07.11-.16.22-.26.31-.09.1-.2.18-.31.26-.11.07-.23.13-.35.19-.12.05-.25.09-.39.11-.13.03-.27.04-.4.04Z"/>
        </g>
      </g>
    </g>
  </g>
</svg>